<?xml version="1.0" encoding="UTF-8" standalone="no"?>
<svg id="svg2" xmlns:rdf="http://www.w3.org/1999/02/22-rdf-syntax-ns#" xmlns="http://www.w3.org/2000/svg" height="230" width="450" version="1.1" xmlns:cc="http://creativecommons.org/ns#" xmlns:dc="http://purl.org/dc/elements/1.1/" viewBox="0 -2 270.41149 139.3695">
 <path id="polygon10" d="m213.17-1.1561c-36.866 0-57.617 16.832-58.344 45.625h32.662v-0.54542c0-14.043 7.9058-20.393 24.055-20.393 15.228 0 23.317 5.7943 23.317 15.124 0 11.206-8.8221 14.764-28.831 14.764-2.0138 0-4.232-0.17902-6.403-0.17902v24.645c2.9404-0.17385 5.8453-0.17424 8.426-0.17424 20.922 0 30.11 3.5614 30.11 15.711 0 11.403-8.6557 17.015-25.522 17.015-18.725 0-27.555-7.1089-27.555-22.258v-0.90943h-33.004v2.0671c0 30.082 20.164 48.033 57.251 48.033 39.462 0 62.224-17.375 62.224-42.403 0-15.733-7.3261-26.013-22.587-31.621 12.303-6.17 18.196-14.954 18.196-27.857 0-22.62-19.275-36.644-53.994-36.644zm-214.29 1.7783 54.353 75.632v59.397h33.279v-59.397l55.362-75.632h-39.732l-31.465 46.488-31.866-46.488h-39.934zm116.27 52.841v24.359h33.632v-24.359h-33.632z"/>
</svg>
